<svg width="240" height="233.99999999999997" xmlns="http://www.w3.org/2000/svg">

 <g>
  <title>background</title>
  <rect fill="none" id="canvas_background" height="402" width="582" y="-1" x="-1"/>
 </g>
 <g>
  <title>Layer 1</title>
  <path id="svg_1" fill="#ffffff" d="m197.5,234l-155,0c-23.5,0 -42.5,-19 -42.5,-42.5l0,-149c0,-23.5 19,-42.5 42.5,-42.5l155,0c23.5,0 42.5,19 42.5,42.5l0,149c0,23.5 -19,42.5 -42.5,42.5z"/>
  <path id="svg_2" fill="#f2f2f2" d="m193.7,224l-147.4,0c-20,0 -36.3,-16.3 -36.3,-36.3l0,-141.4c0,-20 16.3,-36.3 36.3,-36.3l147.3,0c20.1,0 36.3,16.3 36.3,36.3l0,141.3c0.1,20.1 -16.2,36.4 -36.2,36.4z"/>
  <path id="svg_3" fill="#ffffff" d="m94.9,109.5l28,53.8c0.5,0.8 0.2,1.6 -0.6,1.6l-17.4,0c-1.1,0 -1.6,-0.3 -2.1,-1.3c-6.4,-13.2 -12.9,-26.4 -19.6,-40.6l-0.2,0c-6,13.4 -12.6,27.5 -19,40.7c-0.5,0.8 -1,1.1 -1.8,1.1l-16.5,0c-1,0 -1.1,-0.8 -0.6,-1.4l27.4,-52.2l-26.5,-52.8c-0.6,-0.8 0,-1.4 0.6,-1.4l17.2,0c1,0 1.4,0.2 1.8,1.1c6.3,13.2 12.7,26.8 18.7,40.1l0.2,0c5.8,-13.2 12.2,-26.9 18.4,-40c0.5,-0.8 0.8,-1.3 1.8,-1.3l16.1,0c0.8,0 1.1,0.6 0.6,1.4l-26.5,51.2zm32.9,16.3c0,-23.3 15.5,-41.5 40.1,-41.5c2.1,0 3.2,0 5.2,0.2l0,-26.5c0,-0.6 0.5,-1 1,-1l15.8,0c0.8,0 1,0.3 1,0.8l0,91.8c0,2.7 0,6.1 0.5,9.8c0,0.6 -0.2,0.8 -0.8,1.1c-8.4,4 -17.2,5.8 -25.6,5.8c-21.7,0.1 -37.2,-13.3 -37.2,-40.5zm45.3,-25.6c-1.4,-0.6 -3.4,-1 -5.8,-1c-12.6,0 -21.4,9.7 -21.4,25.8c0,18.4 9,25.8 20.3,25.8c2.4,0 5,-0.3 6.9,-1.1l0,-49.5z"/>
 </g>
</svg>