<svg width="120" height="60" xmlns="http://www.w3.org/2000/svg">
 <g>
  <title>background</title>
  <rect x="-1" y="-1" width="122" height="62" id="canvas_background" fill="none"/>
 </g>

 <g>
  <title>Layer 1</title>
  <path d="m70.63,27.75l2.8,0l0,10l-2.8,0l0,-1.3c-1,1.5 -2.3,1.6 -3.1,1.6c-3.1,0 -5.1,-2.4 -5.1,-5.3c0,-3 2,-5.3 4.9,-5.3c0.8,0 2.3,0.1 3.2,1.6l0,-1.3l0.1,0zm-5.3,5c0,1.6 1.1,2.8 2.8,2.8a2.73,2.73 0 0 0 2.8,-2.8c0,-1.6 -1.1,-2.8 -2.8,-2.8a2.73,2.73 0 0 0 -2.8,2.8zm13.5,-2.6l0,7.6l-2.8,0l0,-7.6l-1.1,0l0,-2.4l1.1,0l0,-3.4l2.8,0l0,3.4l1.9,0l0,2.4l-1.9,0zm8.5,0c-0.7,-0.6 -1.3,-0.7 -1.6,-0.7c-0.7,0 -1.1,0.3 -1.1,0.8c0,0.3 0.1,0.6 0.9,0.9l0.7,0.2c0.8,0.3 2,0.6 2.5,1.4c0.3,0.4 0.5,1 0.5,1.7c0,0.9 -0.3,1.8 -1.1,2.5s-1.8,1.1 -3,1.1c-2.1,0 -3.2,-1 -3.9,-1.7l1.5,-1.7c0.6,0.6 1.4,1.2 2.2,1.2s1.4,-0.4 1.4,-1.1c0,-0.6 -0.5,-0.9 -0.9,-1l-0.6,-0.2c-0.7,-0.3 -1.5,-0.6 -2.1,-1.2c-0.5,-0.5 -0.8,-1.1 -0.8,-1.9c0,-1 0.5,-1.8 1,-2.3c0.8,-0.6 1.8,-0.7 2.6,-0.7c0.7,0 1.9,0.1 3.2,1.1l-1.4,1.6zm6.1,-1.1c1,-1.4 2.4,-1.6 3.2,-1.6c2.9,0 4.9,2.3 4.9,5.3s-2,5.3 -5,5.3c-0.6,0 -2.1,-0.1 -3.2,-1.6l0,1.3l-2.7,0l0,-16.8l2.8,0l0,8.1zm-0.3,3.7c0,1.6 1.1,2.8 2.8,2.8a2.73,2.73 0 0 0 2.8,-2.8c0,-1.6 -1.1,-2.8 -2.8,-2.8s-2.8,1.2 -2.8,2.8zm13,3.5l-4.8,-8.5l3.3,0l3.1,5.7l2.8,-5.7l3.2,0l-8,15.3l-3.2,0l3.6,-6.8zm-44.5,-6.8l-7,0l0,2.8l3.7,0c-0.6,1.9 -2,3.2 -4.6,3.2c-2.9,0 -5,-2.4 -5,-5.3s2,-5.4 4.9,-5.4c1.6,0 3.2,0.8 4.2,2.1l2.3,-1.5c-1.5,-2.1 -3.9,-3.3 -6.5,-3.3c-4.4,0 -8,3.6 -8,8.1s3.4,8.1 8,8.1s8,-3.6 8,-8.1c0.1,-0.3 0,-0.5 0,-0.7z" id="svg_1" fill="#ffffff"/>
  <path fill-opacity="0" d="m36.752,30l-8.562,0l0,2.447l5.872,0c-0.856,3.67 -3.548,6.728 -7.095,7.952l-14.07,-14.069c1.468,-4.282 5.627,-7.33 10.398,-7.33c3.67,0 6.973,1.835 9.053,4.65l1.835,-1.6c-2.447,-3.303 -6.36,-5.505 -10.888,-5.505c-6.36,0 -11.744,4.526 -13.1,10.52l16.148,16.148c5.883,-1.469 10.409,-6.853 10.409,-13.213zm-26.914,0.122c0,3.425 1.346,6.728 3.915,9.297s5.994,3.915 9.297,3.915l-13.212,-13.212z" fill="#0fffff" id="svg_2"/>
  <path d="m23.295,12.873c-9.42,0 -17.127,7.707 -17.127,17.127s7.707,17.127 17.127,17.127s17.127,-7.707 17.127,-17.127s-7.707,-17.127 -17.127,-17.127zm-9.542,26.67c-2.57,-2.57 -3.915,-5.994 -3.915,-9.297l13.334,13.212c-3.425,-0.122 -6.85,-1.346 -9.42,-3.915l0.001,0zm12.478,3.557l-16.026,-16.036c1.346,-5.994 6.728,-10.52 13.1,-10.52c4.526,0 8.44,2.202 10.888,5.505l-1.835,1.6c-2.08,-2.814 -5.383,-4.65 -9.053,-4.65c-4.77,0 -8.808,3.058 -10.398,7.34l14.068,14.068c3.548,-1.223 6.24,-4.282 7.095,-7.952l-5.88,0l0,-2.455l8.563,0c0,6.36 -4.526,11.744 -10.52,13.1l-0.002,0z" fill="#ffffff" id="svg_3"/>
 </g>
</svg>