<?xml version="1.0" encoding="utf-8"?>
<!-- Generator: Adobe Illustrator 23.0.5, SVG Export Plug-In . SVG Version: 6.00 Build 0)  -->
<svg version="1.1" id="Ebene_1" xmlns="http://www.w3.org/2000/svg" xmlns:xlink="http://www.w3.org/1999/xlink" x="0px" y="0px"
	 viewBox="0 0 120 40.2" style="enable-background:new 0 0 120 40.2;" xml:space="preserve">
<style type="text/css">
	.st0{fill:none;}
	.st1{fill:#FFFFFF;}
	.st2{fill:#0FFFFF;fill-opacity:0;}
</style>
<g>
	<title>background</title>
	<rect id="canvas_background" x="-5.9" y="-13.2" class="st0" width="131.8" height="67"/>
</g>
<g>
	<title>Layer 1</title>
	<path id="svg_1" class="st1" d="M71.5,17.8h3v10.8h-3v-1.4C70.4,28.9,69,29,68.1,29c-3.3,0-5.5-2.6-5.5-5.7c0-3.2,2.2-5.7,5.3-5.7
		c0.9,0,2.5,0.1,3.5,1.7v-1.4C71.4,17.8,71.5,17.8,71.5,17.8z M65.8,23.2c0,1.7,1.2,3,3,3c1.6,0,3-1.2,3-2.9c0-0.1,0-0.1,0-0.2
		c0-1.7-1.2-3-3-3c-1.6,0-3,1.2-3,2.9C65.8,23.1,65.8,23.2,65.8,23.2z M80.3,20.4v8.2h-3v-8.2h-1.2v-2.6h1.2v-3.7h3v3.7h2.1v2.6
		H80.3z M89.5,20.4c-0.8-0.6-1.4-0.8-1.7-0.8c-0.8,0-1.2,0.3-1.2,0.9c0,0.3,0.1,0.6,1,1l0.8,0.2c0.9,0.3,2.2,0.6,2.7,1.5
		c0.3,0.4,0.5,1.1,0.5,1.8c0,1-0.3,1.9-1.2,2.7S88.5,29,87.2,29c-2.3,0-3.5-1.1-4.2-1.8l1.6-1.8c0.6,0.6,1.5,1.3,2.4,1.3
		s1.5-0.4,1.5-1.2c0-0.6-0.5-1-1-1.1l-0.6-0.2c-0.8-0.3-1.6-0.6-2.3-1.3c-0.5-0.5-0.9-1.2-0.9-2.1c0-1.1,0.5-1.9,1.1-2.5
		c0.9-0.6,1.9-0.8,2.8-0.8c0.8,0,2.1,0.1,3.5,1.2C91,18.7,89.5,20.4,89.5,20.4z M96.1,19.2c1.1-1.5,2.6-1.7,3.5-1.7
		c3.1,0,5.3,2.5,5.3,5.7s-2.2,5.7-5.4,5.7c-0.6,0-2.3-0.1-3.5-1.7v1.4h-2.9V10.5h3C96.1,10.5,96.1,19.2,96.1,19.2z M95.8,23.2
		c0,1.7,1.2,3,3,3c1.6,0,3-1.2,3-2.9c0-0.1,0-0.1,0-0.2c0-1.7-1.2-3-3-3C97,20.2,95.8,21.5,95.8,23.2z M109.9,27l-5.2-9.2h3.6
		l3.3,6.2l3-6.2h3.5l-8.6,16.5H106L109.9,27z M61.8,19.7h-7.6v3h4c-0.6,2.1-2.2,3.5-5,3.5c-3.1,0-5.4-2.6-5.4-5.7s2.2-5.8,5.3-5.8
		c1.7,0,3.5,0.9,4.5,2.3l2.5-1.6c-1.6-2.3-4.2-3.6-7-3.6c-4.8,0-8.6,3.9-8.6,8.8s3.7,8.8,8.6,8.8s8.6-3.9,8.6-8.8
		C61.9,20.1,61.8,19.9,61.8,19.7z"/>
	<path id="svg_2" class="st2" d="M34.9,20.3h-9.3v2.6H32c-0.9,4-3.8,7.3-7.7,8.6L9.1,16.3c1.6-4.6,6.1-7.9,11.2-7.9c4,0,7.5,2,9.8,5
		l2-1.7c-2.6-3.6-6.9-5.9-11.8-5.9c-6.9,0-12.7,4.9-14.2,11.4l17.5,17.5C30,33,34.9,27.1,34.9,20.3z M5.8,20.4c0,3.7,1.5,7.3,4.2,10
		s6.5,4.2,10,4.2L5.8,20.4z"/>
	<path id="svg_3" class="st1" d="M20.3,1.8c-10.2,0-18.5,8.3-18.5,18.5s8.3,18.5,18.5,18.5s18.5-8.3,18.5-18.5S30.5,1.8,20.3,1.8z
		 M10,30.6c-2.8-2.8-4.2-6.5-4.2-10l14.4,14.3C16.5,34.7,12.8,33.4,10,30.6C10,30.6,10,30.6,10,30.6z M23.5,34.4L6.2,17.1
		c1.5-6.5,7.3-11.4,14.2-11.4c4.9,0,9.1,2.4,11.8,5.9l-2,1.7c-2.2-3-5.8-5-9.8-5c-5.2,0-9.5,3.3-11.2,7.9l15.2,15.2
		c3.8-1.3,6.7-4.6,7.7-8.6h-6.4v-2.7h9.3C34.9,27.1,30,33,23.5,34.4C23.5,34.4,23.5,34.4,23.5,34.4z"/>
</g>
</svg>
