<svg xmlns="http://www.w3.org/2000/svg" width="220" height="70" stroke="none" stroke-linecap="round" stroke-linejoin="round" fill="#fff" fill-rule="nonzero"><path d="M97.907 27.935q-.8518 0-1.5546.2268-.6815.2087-1.195.7028-.493.474-.7965 1.2332-.2843.758-.3226 1.8102-.0596 1.707 0 3.414.0383 1.0617.3226 1.8103.3035.7582.7965 1.2522.5112.474 1.195.7028.7028.2088 1.5546.2088.837 0 1.5548-.2268.7176-.247 1.233-.7177.5324-.493.837-1.2523.3035-.7582.3035-1.7826v-.967h-3.315q-.4174 0-.4174-.426v-.2662q0-.426.4174-.426h4.0464q.426 0 .426.426v1.6686q0 1.1393-.3407 2.087-.3408.9296-1.0053 1.6143-.6442.6816-1.6143 1.0617-.9584.36-2.1617.36-1.233 0-2.1616-.36-.9297-.379-1.574-1.0436-.626-.6633-.9668-1.5738-.3228-.9296-.36-2.0488-.0384-.852-.0384-1.8018 0-.9583.0384-1.8017.0383-1.118.379-2.0296.3407-.9296.967-1.593.6443-.6633 1.574-1.0243.9296-.3792 2.1424-.3792 1.3098 0 2.2384.3983.9296.3983 1.5173.9584.588.5506.8733 1.1575.2844.607.3034 1.0052.0192.1704-.1064.2843-.114.1065-.3036.1065h-.4173q-.1705 0-.247-.0746-.0746-.1064-.1513-.3034-.1512-.426-.426-.852-.2663-.426-.7178-.7582-.4546-.3407-1.0808-.5505-.6262-.2087-1.4908-.2087zm8.9534 3.7728q.6815-1.3098 2.579-1.3098h.7027q.4175 0 .4175.4174v.2663q0 .4174-.4175.4174h-.8157q-1.1393 0-1.8017.6634-.6633.6634-.6633 1.8017v5.878q0 .1896-.1332.3035-.114.114-.3035.114h-.3035q-.4173 0-.4173-.4174v-9.0086q0-.1896.114-.3036.114-.133.3034-.133h.3035q.1896 0 .3035.133.1332.114.1332.3036v.873zm11.7135 8.5572q-.4175 0-.4175-.4175v-.8912q-.1704.2662-.4547.5325-.2662.266-.6634.4737-.3982.2088-.9583.341-.5506.1512-1.2778.1512-.6816 0-1.31-.2087-.607-.227-1.0808-.607-.4547-.3792-.74-.8913-.2662-.511-.2662-1.1182 0-.6442.2662-1.1574.2843-.5112.7773-.8913.493-.3983 1.1757-.6442.7028-.2663 1.5365-.379l2.9965-.4175v-.6633q0-1.0245-.626-1.593-.607-.5686-1.953-.5686-1.0616 0-1.6504.4174-.5688.3983-.7178.8732-.0746.2268-.1896.3226-.1064.0746-.266.0746h-.2663q-.1704 0-.3035-.114-.114-.133-.114-.3034 0-.2663.1895-.6635.1896-.3982.607-.7773.4258-.379 1.1-.6442.6634-.2843 1.6143-.2843 1.1182 0 1.84.3034.74.3035 1.1576.7966.4174.4738.5686 1.0615.1703.588.1703 1.1576v6.3146q0 .4174-.4174.4174h-.3226zm-3.5844-.9104q.6442 0 1.214-.2088.5877-.2268 1.0244-.6634.426-.426.6814-1.1.247-.6635.247-1.5548v-.6442l-2.446.3408q-3.1477.426-3.1477 2.0104 0 .474.2087.8157.227.3407.5687.5686.3407.2268.7773.3407.426.1066.8732.1066zm11.6666 1.1q-1.1947 0-1.953-.426-.7582-.426-1.2332-1.0617v4.4937q0 .4175-.4174.4175h-.3226q-.4174 0-.4174-.4175V30.8154q0-.4174.4174-.4174h.3226q.4174 0 .4174.4174v.8913q.474-.6442 1.2332-1.0617.7582-.426 1.953-.426 1.1 0 1.8582.3983.7774.38 1.2523 1.0244.4738.626.6815 1.4417.2268.7966.2662 1.6314.019.2844.019.6262 0 .3408-.019.626-.0384.837-.2662 1.6506-.2087.7965-.6815 1.4418-.474.626-1.2523 1.0244-.7582.379-1.8582.379zM123.47 34.65q-.019.2844-.019.739 0 .4547.019.74.0193.5686.1896 1.1575.1895.5687.5687 1.0244.38.4547.9584.7582.5686.2843 1.365.2843.837 0 1.3842-.2843.5687-.2843.9106-.7582.36-.493.511-1.118.1703-.6443.2086-1.328.0192-.5324 0-1.0617-.0383-.6814-.2086-1.3098-.1512-.626-.511-1.1-.3408-.493-.9106-.7772-.5504-.3035-1.3842-.3035-.8157 0-1.3843.3035-.5686.3034-.9585.7965-.36.4738-.5504 1.0616-.1704.5878-.1896 1.1756zm11.0032-2.9432q.5112-.6634 1.2332-1.081.7177-.4173 1.953-.4173.9668 0 1.6878.3226.7176.3227 1.1947.8913.493.5686.739 1.347.247.7773.247 1.688v5.386q0 .4175-.4174.4175h-.3194q-.4174 0-.4174-.4175V34.552q0-1.5174-.74-2.3703-.739-.8732-2.1617-.8732-1.3652 0-2.181.8518-.8157.852-.8157 2.3928v5.2923q0 .4174-.4174.4174h-.3226q-.4175 0-.4175-.4174V27.211q0-.4175.4175-.4175h.3226q.4174 0 .4174.4175v4.4937zm14.8016-4.9112q1.1 0 2.0105.3227.9104.3226 1.5546.986.6635.6442 1.0245 1.6314.38.9668.4174 2.2947.0383.852.0383 1.593 0 .74-.0383 1.593-.1065 2.712-1.3844 3.9825l1.214 1.707q.019.0384.0384.0746.019.0383.019.133 0 .1512-.114.2662-.114.114-.2663.114h-.428q-.2086 0-.3598-.1704-.1513-.151-.247-.266l-.837-1.1576q-1.1394.5506-2.6557.5506-2.3705 0-3.66-1.2704-1.2704-1.2704-1.347-3.9634-.0384-.852-.0384-1.593 0-.74.0384-1.593.0384-1.328.3983-2.2947.38-.986 1.0243-1.6314.6635-.6635 1.5548-.986.9104-.3227 2.0296-.3227zm0 1.1395q-.7965 0-1.4908.247-.6815.227-1.1947.74-.5112.5112-.8157 1.3098-.2844.7966-.3227 1.8955-.0192.426-.0383.7965 0 .36 0 .7028 0 .3407 0 .7177.019.36.0383.7773.0383 1.118.3227 1.9168.3034.7773.7965 1.2778.511.5112 1.1947.7582.6816.2268 1.495.2268.8157 0 1.495-.2268.6815-.247 1.1757-.7582.511-.5112.7965-1.2778.3035-.7966.3407-1.9168.0192-.4174.0192-.7773 0-.379 0-.7177 0-.3408 0-.7028 0-.36-.0192-.7965-.0383-1.1-.3407-1.8955-.2843-.7965-.7965-1.3098-.511-.5112-1.1948-.74-.6815-.247-1.4908-.247zm9.257 11.1874h6.5425q.4258 0 .4258.426v.2844q0 .4173-.4258.4173h-7.32q-.4174 0-.4174-.4173V27.4026q0-.4174.4174-.4174h.36q.4175 0 .4175.4174v11.7198zm-100.213 5.338l-1.278-.74 14.2457-24.6728 1.278.74z"/><path d="M56.7502 41.7526h28.4913v1.477H56.7502z"/><path d="M71.5656 50.8103l-14.252-8.2282.74-1.2778 14.25 8.226zm12.38-21.4463l-14.25-8.227.74-1.2778 14.251 8.2282z"/><path d="M58.0557 29.3598l-.74-1.2778 14.2627-8.2186.739 1.2778z"/><path d="M83.6827 44.4616l-14.248-24.6728 1.2778-.74 14.2458 24.6728zM57.88 27.1023h1.475v16.4563H57.88zm24.7643 0h1.477v16.4563H82.654z"/><path d="M71.3132 50.1853l-.6453-1.1182 12.395-7.1558.6453 1.118z"/><path d="M86.0786 44.039c-.8586 1.485-2.7572 1.9942-4.2436 1.1384s-1.994-2.7572-1.1383-4.2436 2.7572-1.994 4.2435-1.1383c.7154.41 1.238 1.0884 1.4518 1.885s.1014 1.6452-.3124 2.3586M61.297 29.727c-.8585 1.485-2.757 1.9942-4.2435 1.1384s-1.994-2.757-1.1383-4.2434 2.757-1.9943 4.2435-1.1384 1.9913 2.7687 1.1394 4.2434M55.926 44.039c-.854-1.4855-.3472-3.38 1.1393-4.2435 1.4855-.854 3.38-.347 4.2435 1.1394.854 1.4855.347 3.3798-1.1394 4.2435-1.496.854-3.3916.3482-4.2434-1.1394M80.7085 29.727c-.854-1.4854-.3472-3.3798 1.1393-4.2434 1.4855-.854 3.3798-.3472 4.2434 1.1394.854 1.4855.3472 3.38-1.1393 4.2435-1.4864.8558-3.385.3465-4.2434-1.1384M71 52.7505c-1.7165 0-3.104-1.3875-3.104-3.104s1.3908-3.104 3.104-3.104 3.104 1.3875 3.104 3.104-1.39 3.1012-3.104 3.104m0-28.6255c-1.7165 0-3.104-1.3876-3.104-3.104s1.3908-3.104 3.104-3.104 3.104 1.3875 3.104 3.104c.0014.8237-.3252 1.614-.9076 2.1964s-1.3728.909-2.1965.9077"/></svg>