<?xml version="1.0" encoding="utf-8"?>
<!-- Generator: Adobe Illustrator 23.0.5, SVG Export Plug-In . SVG Version: 6.00 Build 0)  -->
<svg version="1.1" id="Ebene_1" xmlns="http://www.w3.org/2000/svg" xmlns:xlink="http://www.w3.org/1999/xlink" x="0px" y="0px"
	 viewBox="0 0 220 70" style="enable-background:new 0 0 220 70;" xml:space="preserve">
<style type="text/css">
	.st0{fill:#FFFFFF;}
</style>
<path class="st0" d="M85.3,21.2c-1.1,0-2.1,0.1-3,0.4c-0.9,0.3-1.6,0.7-2.3,1.3c-0.6,0.6-1.1,1.4-1.5,2.3c-0.4,1-0.6,2.1-0.6,3.4
	c-0.1,2.2-0.1,4.3,0,6.5c0,1.3,0.3,2.5,0.6,3.4c0.4,1,0.9,1.8,1.5,2.4c0.6,0.6,1.4,1,2.3,1.3c0.9,0.3,1.9,0.4,3,0.4
	c1.1,0,2-0.1,3-0.4c0.9-0.3,1.7-0.8,2.3-1.4c0.7-0.6,1.2-1.4,1.6-2.4c0.4-1,0.6-2.1,0.6-3.4v-1.8h-6.3c-0.5,0-0.8-0.3-0.8-0.8v-0.5
	c0-0.5,0.3-0.8,0.8-0.8h7.7c0.5,0,0.8,0.3,0.8,0.8v3.2c0,1.4-0.2,2.8-0.6,4c-0.4,1.2-1.1,2.2-1.9,3.1c-0.8,0.9-1.8,1.5-3.1,2
	c-1.2,0.5-2.6,0.7-4.1,0.7c-1.6,0-2.9-0.2-4.1-0.7c-1.2-0.5-2.2-1.1-3-2c-0.8-0.8-1.4-1.8-1.8-3c-0.4-1.2-0.6-2.5-0.7-3.9
	c0-1.1-0.1-2.2-0.1-3.4c0-1.2,0-2.4,0.1-3.4c0-1.4,0.3-2.7,0.7-3.9c0.4-1.2,1-2.2,1.8-3c0.8-0.8,1.8-1.5,3-2
	c1.2-0.5,2.5-0.7,4.1-0.7c1.7,0,3.1,0.3,4.3,0.8c1.2,0.5,2.1,1.1,2.9,1.8c0.7,0.7,1.3,1.4,1.7,2.2c0.4,0.8,0.6,1.4,0.6,1.9
	c0,0.2,0,0.4-0.2,0.5c-0.1,0.1-0.3,0.2-0.6,0.2H93c-0.2,0-0.4,0-0.5-0.1c-0.1-0.1-0.2-0.3-0.3-0.6c-0.2-0.5-0.5-1.1-0.8-1.6
	c-0.3-0.5-0.8-1-1.4-1.4c-0.6-0.4-1.3-0.8-2.1-1C87.2,21.4,86.3,21.3,85.3,21.2L85.3,21.2z M102.3,28.4c0.9-1.7,2.5-2.5,4.9-2.5h1.3
	c0.5,0,0.8,0.3,0.8,0.8v0.5c0,0.5-0.3,0.8-0.8,0.8H107c-1.4,0-2.6,0.4-3.4,1.3c-0.8,0.8-1.3,2-1.3,3.4v11.2c0,0.2-0.1,0.4-0.3,0.6
	c-0.1,0.1-0.3,0.2-0.6,0.2h-0.6c-0.5,0-0.8-0.3-0.8-0.8V26.8c0-0.2,0.1-0.4,0.2-0.6c0.1-0.2,0.3-0.3,0.6-0.3h0.6
	c0.2,0,0.4,0.1,0.6,0.3c0.2,0.1,0.3,0.3,0.3,0.6L102.3,28.4L102.3,28.4z M124.6,44.7c-0.5,0-0.8-0.3-0.8-0.8v-1.7
	c-0.2,0.3-0.5,0.7-0.9,1c-0.3,0.3-0.8,0.6-1.3,0.9c-0.5,0.3-1.1,0.5-1.8,0.6c-0.7,0.2-1.5,0.3-2.4,0.3c-0.9,0-1.7-0.1-2.5-0.4
	c-0.8-0.3-1.5-0.7-2.1-1.2c-0.6-0.5-1-1-1.4-1.7c-0.3-0.6-0.5-1.4-0.5-2.1c0-0.8,0.2-1.6,0.5-2.2c0.4-0.6,0.9-1.2,1.5-1.7
	c0.6-0.5,1.4-0.9,2.2-1.2c0.9-0.3,1.9-0.6,2.9-0.7l5.7-0.8v-1.3c0-1.3-0.4-2.3-1.2-3c-0.8-0.7-2-1.1-3.7-1.1c-1.3,0-2.4,0.3-3.1,0.8
	c-0.7,0.5-1.2,1.1-1.4,1.7c-0.1,0.3-0.2,0.5-0.4,0.6c-0.1,0.1-0.3,0.1-0.5,0.1h-0.5c-0.2,0-0.4-0.1-0.6-0.2
	c-0.1-0.2-0.2-0.4-0.2-0.6c0-0.3,0.1-0.8,0.4-1.3c0.2-0.5,0.6-1,1.2-1.5c0.5-0.5,1.2-0.9,2.1-1.2c0.8-0.4,1.9-0.5,3.1-0.5
	c1.4,0,2.6,0.2,3.5,0.6c0.9,0.4,1.7,0.9,2.2,1.5c0.5,0.6,0.9,1.3,1.1,2c0.2,0.7,0.3,1.5,0.3,2.2v12c0,0.5-0.3,0.8-0.8,0.8
	L124.6,44.7L124.6,44.7z M117.8,43c0.8,0,1.6-0.1,2.3-0.4c0.7-0.3,1.4-0.7,2-1.3c0.5-0.5,1-1.2,1.3-2.1c0.3-0.8,0.5-1.8,0.5-3V35
	l-4.7,0.6c-4,0.5-6,1.8-6,3.8c0,0.6,0.1,1.1,0.4,1.6c0.3,0.4,0.6,0.8,1.1,1.1c0.4,0.3,0.9,0.5,1.5,0.6C116.7,42.9,117.3,43,117.8,43
	L117.8,43z M140,45.1c-1.5,0-2.8-0.3-3.7-0.8c-1-0.5-1.7-1.2-2.3-2v8.6c0,0.5-0.3,0.8-0.8,0.8h-0.6c-0.5,0-0.8-0.3-0.8-0.8V26.7
	c0-0.5,0.3-0.8,0.8-0.8h0.6c0.5,0,0.8,0.3,0.8,0.8v1.7c0.6-0.8,1.4-1.5,2.3-2c1-0.5,2.2-0.8,3.7-0.8c1.4,0,2.6,0.3,3.5,0.8
	c1,0.5,1.8,1.1,2.4,2c0.6,0.8,1,1.7,1.3,2.7c0.3,1,0.5,2,0.5,3.1c0,0.4,0,0.8,0,1.2c0,0.4,0,0.8,0,1.2c0,1.1-0.2,2.1-0.5,3.1
	c-0.3,1-0.7,1.9-1.3,2.7c-0.6,0.8-1.4,1.4-2.4,2C142.6,44.9,141.4,45.1,140,45.1L140,45.1z M134,34c0,0.4,0,0.8,0,1.4
	c0,0.6,0,1,0,1.4c0,0.7,0.1,1.5,0.4,2.2c0.2,0.7,0.6,1.4,1.1,2c0.5,0.6,1.1,1.1,1.8,1.4c0.7,0.4,1.6,0.5,2.6,0.5
	c1.1,0,1.9-0.2,2.6-0.5c0.7-0.4,1.3-0.8,1.7-1.4c0.5-0.6,0.8-1.3,1-2.1c0.2-0.8,0.3-1.7,0.4-2.5c0-0.7,0-1.3,0-2
	c0-0.9-0.2-1.7-0.4-2.5c-0.2-0.8-0.5-1.5-1-2.1c-0.4-0.6-1-1.1-1.7-1.5c-0.7-0.4-1.6-0.6-2.6-0.6c-1,0-1.9,0.2-2.6,0.6
	c-0.7,0.4-1.3,0.9-1.8,1.5c-0.5,0.6-0.8,1.3-1,2C134.1,32.5,134,33.3,134,34L134,34z M154.9,28.4c0.6-0.8,1.4-1.5,2.3-2.1
	c0.9-0.5,2.2-0.8,3.7-0.8c1.2,0,2.3,0.2,3.2,0.6c0.9,0.4,1.7,1,2.3,1.7c0.6,0.7,1.1,1.6,1.4,2.6c0.3,1,0.5,2.1,0.5,3.2v10.3
	c0,0.5-0.3,0.8-0.8,0.8H167c-0.5,0-0.8-0.3-0.8-0.8V33.8c0-1.9-0.5-3.4-1.4-4.5c-0.9-1.1-2.3-1.7-4.1-1.7c-1.7,0-3.1,0.5-4.2,1.6
	c-1,1.1-1.6,2.6-1.6,4.6v10.1c0,0.5-0.3,0.8-0.8,0.8h-0.6c-0.5,0-0.8-0.3-0.8-0.8V19.9c0-0.5,0.3-0.8,0.8-0.8h0.6
	c0.5,0,0.8,0.3,0.8,0.8L154.9,28.4L154.9,28.4z M183.1,19.1c1.4,0,2.7,0.2,3.8,0.6c1.2,0.4,2.1,1,3,1.9c0.8,0.8,1.5,1.9,2,3.1
	c0.5,1.2,0.7,2.7,0.8,4.4c0,1.1,0.1,2.1,0.1,3c0,0.9,0,2-0.1,3c-0.1,3.4-1,6-2.6,7.6l2.3,3.3c0,0,0,0.1,0.1,0.1c0,0,0,0.1,0,0.3
	c0,0.2-0.1,0.4-0.2,0.5c-0.1,0.1-0.3,0.2-0.5,0.2h-0.8c-0.3,0-0.5-0.1-0.7-0.3c-0.2-0.2-0.3-0.4-0.5-0.5l-1.6-2.2
	c-1.4,0.7-3.1,1-5.1,1c-3,0-5.3-0.8-7-2.4c-1.6-1.6-2.5-4.1-2.6-7.5c0-1.1-0.1-2.1-0.1-3c0-0.9,0-2,0.1-3c0-1.7,0.3-3.1,0.8-4.4
	c0.5-1.3,1.1-2.3,2-3.1c0.8-0.8,1.8-1.5,3-1.9C180.4,19.3,181.7,19.1,183.1,19.1L183.1,19.1z M183.1,21.2c-1,0-2,0.2-2.8,0.5
	c-0.9,0.3-1.6,0.8-2.3,1.4c-0.6,0.6-1.2,1.5-1.6,2.5c-0.4,1-0.6,2.2-0.6,3.6c0,0.5,0,1-0.1,1.5c0,0.5,0,0.9,0,1.3c0,0.4,0,0.9,0,1.4
	c0,0.5,0,1,0.1,1.5c0,1.4,0.3,2.6,0.6,3.7c0.4,1,0.9,1.8,1.5,2.4c0.6,0.6,1.4,1.1,2.3,1.4c0.9,0.3,1.8,0.4,2.8,0.4
	c1,0,2-0.1,2.8-0.4c0.9-0.3,1.6-0.8,2.2-1.4c0.6-0.6,1.2-1.5,1.5-2.4c0.4-1,0.6-2.2,0.6-3.7c0-0.5,0-1,0-1.5c0-0.5,0-0.9,0-1.4
	c0-0.4,0-0.9,0-1.3c0-0.5,0-1,0-1.5c0-1.4-0.3-2.6-0.6-3.6c-0.4-1-0.9-1.8-1.5-2.5c-0.6-0.6-1.4-1.1-2.3-1.4
	C185,21.4,184.1,21.2,183.1,21.2L183.1,21.2z M200.7,42.5h12.5c0.5,0,0.8,0.3,0.8,0.8v0.5c0,0.5-0.3,0.8-0.8,0.8h-13.9
	c-0.5,0-0.8-0.3-0.8-0.8V20.2c0-0.5,0.3-0.8,0.8-0.8h0.7c0.5,0,0.8,0.3,0.8,0.8L200.7,42.5L200.7,42.5z M9.9,52.7l-2.4-1.4l27.1-47
	L37,5.7L9.9,52.7z"/>
<path class="st0" d="M6.9,47.6h54.3v2.8H6.9V47.6z"/>
<path class="st0" d="M35.1,64.8L8,49.1l1.4-2.4l27.1,15.7L35.1,64.8z M58.7,24L31.6,8.3L33,5.9l27.1,15.7L58.7,24z"/>
<path class="st0" d="M9.4,24L8,21.5L35.2,5.9l1.4,2.4L9.4,24z"/>
<path class="st0" d="M58.2,52.7l-27.1-47l2.4-1.4l27.1,47L58.2,52.7z M9.1,19.7h2.8V51H9.1V19.7z M56.2,19.7H59V51h-2.8L56.2,19.7z"
	/>
<path class="st0" d="M34.6,63.6l-1.2-2.1L57,47.9l1.2,2.1L34.6,63.6z"/>
<path class="st0" d="M62.8,51.9c-1.6,2.8-5.3,3.8-8.1,2.2c-2.8-1.6-3.8-5.3-2.2-8.1c1.6-2.8,5.3-3.8,8.1-2.2
	c1.4,0.8,2.4,2.1,2.8,3.6C63.8,48.9,63.6,50.6,62.8,51.9 M15.6,24.7c-1.6,2.8-5.3,3.8-8.1,2.2c-2.8-1.6-3.8-5.3-2.2-8.1
	s5.3-3.8,8.1-2.2C16.2,18.2,17.2,21.8,15.6,24.7 M5.3,51.9c-1.6-2.8-0.7-6.4,2.2-8.1c2.8-1.6,6.4-0.7,8.1,2.2
	c1.6,2.8,0.7,6.4-2.2,8.1C10.6,55.7,7,54.7,5.3,51.9 M52.5,24.7c-1.6-2.8-0.7-6.4,2.2-8.1c2.8-1.6,6.4-0.7,8.1,2.2
	c1.6,2.8,0.7,6.4-2.2,8.1C57.8,28.5,54.2,27.5,52.5,24.7 M34.1,68.5c-3.3,0-5.9-2.6-5.9-5.9c0-3.3,2.6-5.9,5.9-5.9s5.9,2.6,5.9,5.9
	C40,65.9,37.3,68.5,34.1,68.5 M34.1,14c-3.3,0-5.9-2.6-5.9-5.9s2.6-5.9,5.9-5.9S40,4.8,40,8.1c0,1.6-0.6,3.1-1.7,4.2
	S35.6,14,34.1,14"/>
</svg>
